HIERARCHY
ROOT Hips
{
  OFFSET 1.22927 95.1886 -44.3501
  CHANNELS 6 Xposition Yposition Zposition Zrotation Xrotation Yrotation
  JOINT ToSpine
  {
    OFFSET -2.69724 7.43032 -0.144315
    CHANNELS 3 Zrotation Xrotation Yrotation
    JOINT Spine
    {
      OFFSET -0.0310711 10.7595 1.96963
      CHANNELS 3 Zrotation Xrotation Yrotation
      JOINT Spine1
      {
        OFFSET 13.1342 3.43533 0.764692
        CHANNELS 3 Zrotation Xrotation Yrotation
        JOINT Neck
        {
          OFFSET 29.8703 7.82586 -0.130764
          CHANNELS 3 Zrotation Xrotation Yrotation
          JOINT Head
          {
            OFFSET 9.52751 0.295786 -0.907742
            CHANNELS 3 Zrotation Xrotation Yrotation
            End Site
            {
              OFFSET 16.4037 0.713936 2.7358
            }
          }
        }
        JOINT LeftShoulder
        {
          OFFSET 27.5574 4.95586 2.47156
          CHANNELS 3 Zrotation Xrotation Yrotation
          JOINT LeftArm
          {
            OFFSET 1.20734 -0.998971 20.1238
            CHANNELS 3 Zrotation Xrotation Yrotation
            JOINT LeftForeArm
            {
              OFFSET 26.8049 -0.0536703 -0.155908
              CHANNELS 3 Zrotation Xrotation Yrotation
              JOINT LeftHand
              {
                OFFSET 26.6817 0 0.320147
                CHANNELS 3 Zrotation Xrotation Yrotation
                End Site
                {
                  OFFSET 18.6119 0 0.382219
                }
              }
            }
          }
        }
        JOINT RightShoulder
        {
          OFFSET 27.5927 4.71444 -2.65209
          CHANNELS 3 Zrotation Xrotation Yrotation
          JOINT RightArm
          {
            OFFSET 2.83739 -1.17114 -18.7564
            CHANNELS 3 Zrotation Xrotation Yrotation
            JOINT RightForeArm
            {
              OFFSET 28.839 -0.0548439 1.22491
              CHANNELS 3 Zrotation Xrotation Yrotation
              JOINT RightHand
              {
                OFFSET 26.5114 0 -0.101894
                CHANNELS 3 Zrotation Xrotation Yrotation
                End Site
                {
                  OFFSET 18.2168 0 0
                }
              }
            }
          }
        }
      }
    }
  }
  JOINT LeftUpLeg
  {
    OFFSET -4.76168 -1.9167 -10.2353
    CHANNELS 3 Zrotation Xrotation Yrotation
    JOINT LeftLeg
    {
      OFFSET 2.55951 -42.0585 -8.02213
      CHANNELS 3 Zrotation Xrotation Yrotation
      JOINT LeftFoot
      {
        OFFSET 3.16357 -42.5282 -3.95426
        CHANNELS 3 Zrotation Xrotation Yrotation
        JOINT LeftToeBase
        {
          OFFSET 0.346054 -6.02161 12.8035
          CHANNELS 3 Zrotation Xrotation Yrotation
          End Site
          {
            OFFSET 0.134235 -1.35082 5.13018
          }
        }
      }
    }
  }
  JOINT RightUpLeg
  {
    OFFSET -4.94151 -1.41743 10.6446
    CHANNELS 3 Zrotation Xrotation Yrotation
    JOINT RightLeg
    {
      OFFSET -2.56294 -42.0364 -7.94377
      CHANNELS 3 Zrotation Xrotation Yrotation
      JOINT RightFoot
      {
        OFFSET -3.0952 -42.555 -4.02241
        CHANNELS 3 Zrotation Xrotation Yrotation
        JOINT RightToeBase
        {
          OFFSET -0.0828122 -6.13587 12.8035
          CHANNELS 3 Zrotation Xrotation Yrotation
          End Site
          {
            OFFSET -0.131328 -1.35082 5.13018
          }
        }
      }
    }
  }
}
MOTION
Frames:	18
Frame Time:	0.0333333
-4.87815 70.3255 -37.5137 46.5395 -38.0317 -31.6839 -70.1915 0 88.8779 155.014 59.2544 -63.2377 -4.07185 25.5662 3.23168 -138.989 40.7013 160.256 160.476 79.422 -111.288 1.30268 -7.34808 -18.6602 -85.5685 53.519 -58.5447 6.2788 11.047 -29.6395 0.420955 0.000581939 0.358659 -2.8371 9.61124 43.5592 -101.235 -3.99055 91.7945 12.3116 -7.69339 58.4906 0.586759 0.000328927 0.0646669 -32.1166 13.775 90.6325 -151.628 77.3015 129.188 -3.43813 -10.1545 -0.74983 23.6781 -36.5934 21.8694 16.2926 -0.528529 83.3818 149.814 83.207 -155.059 -14.26 -24.6258 0.820419 3.35515 -3.56418 -22.3861 
-4.98926 67.9286 -37.8266 48.1554 -38.948 -29.6415 -70.1915 0 88.8779 157.062 57.9914 -65.0441 -4.58992 25.8797 3.69186 -138.161 40.7734 159.294 160.637 79.749 -111.025 1.35299 -6.62977 -18.1945 -85.6485 53.6632 -56.2808 6.21226 11.6015 -28.6652 0.420955 0.000581939 0.358659 -2.80142 9.58403 43.2757 -99.4223 -3.04715 91.5534 11.3469 -7.35858 57.4903 0.586759 0.000328927 0.0646669 -33.3843 14.2535 89.1613 -155.819 74.6723 133.187 -2.26945 -13.0456 -1.09913 26.4529 -38.5219 25.4761 17.4223 -1.02867 82.1901 159.293 79.5777 -165.282 -15.0513 -25.2544 0.71339 3.24479 -4.78225 -22.1409 
-5.0298 65.5539 -38.2174 49.4298 -39.7186 -28.2022 -70.1915 0 88.8779 159.169 57.3004 -66.5528 -4.4906 26.7209 3.09348 -136.449 40.6959 157.274 161.287 80.2422 -110.739 1.29277 -7.23681 -17.8964 -87.5023 53.1207 -52.7612 6.71744 13.3723 -27.9904 0.420955 0.000581939 0.358659 -2.71425 9.01545 44.2011 -97.7993 -1.19402 91.2991 10.4402 -7.0959 56.2266 0.586759 0.000328927 0.0646669 -34.0316 14.363 87.7061 -159.319 71.2231 135.293 -1.49103 -15.6693 -1.35907 27.8288 -38.6487 29.2867 18.9708 -2.1069 81.2774 162.748 75.7866 -168.459 -15.0038 -26.1349 0.664783 3.21399 -4.88395 -21.9625 
-5.04703 63.1826 -38.6639 50.3972 -40.7139 -27.0357 -70.1915 0 88.8779 160.947 56.8764 -68.3566 -4.3206 27.4263 3.25656 -135.672 40.9746 156.86 159.066 80.3811 -108.032 1.33337 -6.63861 -17.5949 -88.5792 52.6559 -50.2516 7.13285 14.8768 -27.5932 0.420955 0.000581939 0.358659 -2.73154 9.21387 43.7258 -96.6482 -0.432052 91.1932 11.2176 -8.09351 54.6811 0.586759 0.000328927 0.0646669 -34.3849 15.2092 86.3486 -161.78 67.5546 136.01 -0.767337 -16.8918 -1.46559 30.0842 -40.3921 30.7213 20.6421 -2.86556 80.3685 165.904 72.3938 -171.114 -15.4218 -26.4546 0.601843 3.26049 -5.17138 -22.5188 
-5.53607 61.0501 -39.021 51.233 -42.7185 -25.9239 -70.1915 0 88.8779 164.008 55.3692 -72.3888 -5.35963 28.535 4.6044 -135.201 41.2541 156.636 157.16 80.4933 -105.633 1.35937 -6.24053 -17.4167 -88.0046 52.7561 -49.2423 6.58507 14.4178 -27.1921 0.420955 0.000581939 0.358659 -2.67315 9.36024 42.632 -95.5532 -0.293262 91.3241 10.6214 -8.23002 52.7166 0.586759 0.000328927 0.0646669 -34.877 17.8498 85.6876 -163.537 63.941 135.669 0.780146 -15.5563 -1.32105 33.1291 -42.296 33.2823 21.8182 -2.33188 78.8796 167.34 69.5317 -172.259 -15.4448 -26.6841 0.584834 3.41167 -4.86951 -23.5513 
-5.33582 58.8788 -39.3432 52.9375 -42.8723 -24.4114 -70.1915 0 88.8779 164.781 54.6595 -72.9992 -5.01331 28.9577 4.02152 -134.837 41.2458 155.726 156.513 80.6352 -105.26 1.37466 -5.66523 -16.6584 -87.0085 53.069 -48.9187 6.42954 14.2512 -27.125 0.420955 0.000581939 0.358659 -2.74405 9.67388 42.4062 -93.9542 0.143385 91.2973 10.099 -8.41296 50.6902 0.586759 0.000328927 0.0646669 -34.7563 18.4759 84.3688 -164.833 60.4104 136.144 0.783818 -15.936 -1.35532 34.3353 -43.4899 33.058 22.9671 -4.37513 78.4234 168.53 66.2333 -174.142 -15.3518 -27.7688 0.52711 3.13892 -4.22508 -21.0656 
-5.37488 57.0737 -39.8156 54.5015 -43.2939 -23.039 -70.1915 0 88.8779 165.82 53.585 -74.1151 -4.70904 29.3488 3.66201 -135.331 41.529 156.147 153.542 80.3052 -102.289 1.39286 -5.23958 -16.3687 -86.8742 53.3301 -48.1319 6.98129 14.7296 -27.5517 0.420955 0.000581939 0.358659 -2.76459 10.0469 41.5178 -92.4019 0.0704684 91.6408 9.5433 -8.57654 48.5378 0.586759 0.000328927 0.0646669 -34.6891 19.2003 83.3438 -165.744 57.2092 135.571 1.00642 -15.7634 -1.3401 36.3325 -44.6583 34.599 24.0549 -5.91002 77.9123 169.219 63.6486 -174.608 -15.4228 -27.794 0.517371 3.21555 -4.35526 -21.6753 
-5.44576 55.5546 -40.3356 55.9995 -43.9301 -21.4172 -70.1915 0 88.8779 167.45 52.0887 -75.5434 -4.54452 30.0062 3.25891 -135.361 41.7369 155.425 151.914 80.3911 -100.377 1.40422 -4.82131 -15.9912 -86.0601 53.844 -48.3779 7.61444 14.9135 -28.2839 0.420955 0.000581939 0.358659 -2.75903 10.0182 41.5443 -90.4596 0.844076 92.0792 7.99143 -7.82901 46.0409 0.586759 0.000328927 0.0646669 -34.5982 20.299 82.0817 -166.407 54.433 135.447 0.994623 -15.1465 -1.29701 38.5502 -46.3011 35.3156 24.7084 -6.71971 77.0792 169.749 61.7807 -175.654 -15.4625 -27.7244 0.516764 3.26931 -4.41297 -22.1352 
-5.67985 54.0612 -40.7719 57.6395 -45.0636 -19.7811 -70.1915 0 88.8779 169.219 49.6499 -77.8616 -5.40771 30.8986 3.62864 -135.563 41.8395 154.841 150.991 80.4247 -99.3152 1.39866 -4.81548 -15.8658 -85.6874 54.3932 -48.5815 8.16036 15.3852 -28.7482 0.420955 0.000581939 0.358659 -2.88968 10.3889 41.7832 -88.2601 2.07599 92.1596 7.39775 -7.83551 43.8103 0.586759 0.000328927 0.0646669 -35.0664 21.605 80.7685 -166.883 51.9782 134.911 -0.343655 -15.8106 -1.35364 38.6943 -46.8222 34.4161 25.1743 -6.30435 76.5905 170.272 60.2721 -177.445 -15.1903 -27.3789 0.571832 3.07671 -4.50518 -20.6241 
-5.59012 53.106 -41.3966 59.4884 -45.064 -17.4213 -70.1915 0 88.8779 170.436 47.5948 -78.4996 -5.47955 31.0537 3.82019 -136.415 42.2161 155.14 149.33 80.4032 -97.648 1.4187 -4.98021 -16.5363 -85.0414 54.8565 -49.3571 8.14818 15.2507 -28.8377 0.420955 0.000581939 0.358659 -2.89741 10.5654 41.3725 -86.3314 2.80312 92.5121 6.25984 -7.08674 41.9208 0.586759 0.000328927 0.0646669 -34.6512 21.8413 78.7041 -167.245 49.8293 133.98 -0.8277 -14.5814 -1.25488 40.4443 -46.7754 37.8896 25.1009 -7.24282 76.3879 170.415 59.1318 -177.253 -15.9287 -26.7377 0.526271 3.15381 -5.40144 -21.8165 
-5.5181 52.0367 -42.0038 59.6733 -44.5867 -16.6082 -70.1915 0 88.8779 170.996 47.0192 -78.8766 -5.60275 31.2148 4.25818 -137.139 42.3693 155.461 148.494 80.2645 -96.9936 1.44096 -4.92141 -16.9247 -83.4519 55.7227 -51.1521 7.81512 14.6573 -28.7832 0.420955 0.000581939 0.358659 -2.92453 10.5929 41.5557 -83.9165 4.22482 92.7975 5.05151 -6.18588 39.7524 0.586759 0.000328927 0.0646669 -33.2382 21.6933 77.2746 -167.579 47.7969 134.199 -1.40434 -14.0231 -1.19996 42.5799 -48.1027 38.871 26.6385 -7.78962 76.8862 170.753 57.982 -178.479 -16.3147 -25.8803 0.544712 2.89922 -6.41166 -19.9577 
-5.36851 50.9739 -42.5756 59.4851 -44.246 -16.404 -70.1915 0 88.8779 171.192 46.7474 -79.3822 -5.76013 31.3404 4.59977 -136.815 41.8973 154.517 153.183 80.7499 -100.943 1.43685 -4.94351 -16.8717 -82.6027 56.4982 -52.1567 7.89305 14.7721 -28.82 0.420955 0.000581939 0.358659 -3.04012 10.3893 43.231 -80.8339 6.4293 93.0037 2.86479 -3.86231 37.4282 0.586759 0.000328927 0.0646669 -32.0428 21.3373 76.2746 -167.842 45.8578 133.908 -1.667 -13.6062 -1.15836 44.0723 -48.7115 40.1752 28.6881 -8.01667 77.7723 170.867 56.6285 -178.189 -16.4257 -24.3223 0.645502 2.87254 -8.00875 -20.6373 
-5.10028 49.9967 -43.1455 59.4721 -44.2261 -15.915 -70.1915 0 88.8779 171.627 46.2195 -80.0933 -5.65931 31.4378 5.16737 -138.667 42.12 155.675 152.554 80.4674 -100.89 1.45309 -5.01379 -17.341 -82.2621 56.9584 -52.8416 8.0033 15.2419 -28.6487 0.420955 0.000581939 0.358659 -3.02153 10.542 42.6178 -79.0106 7.06323 93.8166 1.59301 -2.39773 35.1777 0.586759 0.000328927 0.0646669 -31.0861 21.3507 75.0963 -168.051 43.9071 132.201 -2.63452 -13.1628 -1.10198 44.6898 -48.2969 42.1193 30.3937 -8.04535 78.5887 170.937 55.3038 -177.718 -16.4285 -22.8025 0.750734 2.8316 -9.20058 -20.9223 
-4.91897 49.0452 -43.7362 59.6742 -43.3667 -15.3562 -70.1915 0 88.8779 171.882 45.3778 -80.5662 -5.73281 31.4093 5.47438 -139.936 42.336 155.666 152.565 80.6309 -101.452 1.4232 -5.49445 -17.5297 -81.3371 56.9581 -54.1726 7.80673 15.5769 -28.1768 0.420955 0.000581939 0.358659 -2.99217 10.136 43.5108 -78.3786 7.83009 94.2751 0.700055 -1.2238 33.2768 0.586759 0.000328927 0.0646669 -29.1158 20.923 73.6565 -168.303 41.5774 131.044 -3.65574 -12.1423 -0.97373 44.3393 -48.1519 41.8482 32.1395 -8.33702 80.0025 171.034 54.0123 -177.53 -15.5976 -22.2792 0.846913 2.92463 -8.76575 -21.6456 
-4.73733 48.1557 -44.3309 59.7245 -41.3461 -15.1521 -70.1915 0 88.8779 171.525 45.1586 -79.9722 -5.07357 31.0093 5.02629 -140.878 42.5543 155.088 154.345 81.2492 -103.597 1.33586 -6.70972 -17.8625 -81.9155 56.4894 -54.2206 7.59984 15.6783 -27.8506 0.420955 0.000581939 0.358659 -3.10015 10.5596 43.3122 -78.6824 7.49429 94.3477 -0.13417 0.0391131 31.7296 0.586759 0.000328927 0.0646669 -26.9259 19.0901 72.2844 -168.5 39.649 130.23 -4.68953 -11.363 -0.855018 45.6003 -48.5873 43.0205 34.2317 -9.49426 81.9552 171.22 52.8902 -178.149 -15.593 -21.5766 0.890355 2.98688 -9.80163 -23.4955 
-4.68827 47.5827 -44.8715 60.3279 -39.2491 -14.7031 -70.1915 0 88.8779 171.235 44.5711 -79.7139 -4.96492 30.5657 5.17633 -140.816 43.0364 154.595 149.998 81.2108 -99.0792 1.30685 -7.14016 -18.1179 -82.2356 55.8949 -54.5388 7.33952 15.2207 -27.7734 0.420955 0.000581939 0.358659 -3.07353 10.3984 43.5246 -78.1363 7.64456 93.8816 -0.63374 0.866312 30.9612 0.586759 0.000328927 0.0646669 -25.4921 16.755 71.1732 -168.625 38.3829 130.289 -5.12836 -11.1137 -0.810193 45.3699 -48.8886 41.9926 35.5219 -10.7426 83.9342 171.481 52.1327 -179.555 -15.6279 -21.5905 0.887687 2.91578 -10.1348 -22.8172 
-4.71569 47.2692 -45.257 60.2112 -37.5823 -14.4316 -70.1915 0 88.8779 171.494 44.0599 -79.4701 -5.04255 30.6724 5.01503 -141.542 43.3907 153.877 150.907 81.9113 -100.022 1.2931 -7.1999 -17.7921 -82.0092 55.6365 -55.6156 7.02429 14.3734 -27.853 0.420955 0.000581939 0.358659 -3.03141 10.1206 43.942 -77.8445 8.24621 93.185 -1.37866 2.12 30.7188 0.586759 0.000328927 0.0646669 -23.7213 15.1101 70.2954 -168.729 37.3796 131.09 -5.52809 -11.3875 -0.832605 43.9575 -48.5249 40.3701 36.4723 -11.2394 85.2933 171.787 52.0197 178.404 -15.6368 -21.8924 0.868166 2.71951 -10.4028 -20.3927 
-4.92808 47.0238 -45.6446 59.2722 -35.9295 -14.6166 -70.1915 0 88.8779 171.45 44.2084 -79.3612 -5.46214 30.5146 5.71991 -142.428 44.0337 154.442 146.141 81.7652 -95.5875 1.3351 -6.66792 -17.7265 -80.6478 55.9372 -57.1455 6.70154 13.0534 -28.2883 0.420955 0.000581939 0.358659 -2.99681 10.0823 43.7178 -77.2575 8.4272 92.853 -2.08207 3.31114 30.5866 0.586759 0.000328927 0.0646669 -21.0771 13.5264 69.4718 -168.824 36.325 131.54 -5.49657 -11.3821 -0.833245 43.5732 -47.6064 41.7298 38.1535 -11.6679 86.4649 171.746 51.8559 178.794 -15.4624 -21.5089 0.902997 2.81114 -10.6398 -21.9402 
